<svg version="1.1" viewBox="0.0 0.0 908.9107611548557 798.8530183727034" fill="none" stroke="none" stroke-linecap="square" stroke-miterlimit="10" xmlns:xlink="http://www.w3.org/1999/xlink" xmlns="http://www.w3.org/2000/svg"><clipPath id="p.0"><path d="m0 0l908.91077 0l0 798.853l-908.91077 0l0 -798.853z" clip-rule="nonzero"/></clipPath><g clip-path="url(#p.0)"><path fill="#000000" fill-opacity="0.0" d="m0 0l908.91077 0l0 798.853l-908.91077 0z" fill-rule="evenodd"/><path fill="#000000" fill-opacity="0.0" d="m342.6299 44.425198c0 -10.80217 50.53894 -19.559055 112.8819 -19.559055l0 0c62.342926 0 112.88187 8.756886 112.88187 19.559055l0 0c0 10.802166 -50.53894 19.559055 -112.88187 19.559055l0 0c-62.342957 0 -112.8819 -8.756889 -112.8819 -19.559055z" fill-rule="evenodd"/><path stroke="#000000" stroke-width="1.0" stroke-linejoin="round" stroke-linecap="butt" d="m342.6299 44.425198c0 -10.80217 50.53894 -19.559055 112.8819 -19.559055l0 0c62.342926 0 112.88187 8.756886 112.88187 19.559055l0 0c0 10.802166 -50.53894 19.559055 -112.88187 19.559055l0 0c-62.342957 0 -112.8819 -8.756889 -112.8819 -19.559055z" fill-rule="evenodd"/><path fill="#000000" fill-opacity="0.0" d="m271.5794 215.03412l70.78067 -173.51181l226.31265 0l70.7807 173.51181z" fill-rule="evenodd"/><path stroke="#000000" stroke-width="1.0" stroke-linejoin="round" stroke-linecap="butt" d="m271.5794 215.03412l70.78067 -173.51181l226.31265 0l70.7807 173.51181z" fill-rule="evenodd"/><path fill="#000000" fill-opacity="0.0" d="m241.25722 381.28873l0 0c0 -154.1092 67.453415 -279.03937 150.66142 -279.03937l0 0c39.957886 0 78.279205 29.398712 106.53369 81.728745c28.254517 52.330032 44.127747 123.30478 44.127747 197.31064l0 0c0 154.10916 -67.45343 279.03934 -150.66144 279.03934l0 0c-83.20801 0 -150.66142 -124.930176 -150.66142 -279.03934z" fill-rule="evenodd"/><path stroke="#000000" stroke-width="1.0" stroke-linejoin="round" stroke-linecap="butt" d="m241.25722 381.28873l0 0c0 -154.1092 67.453415 -279.03937 150.66142 -279.03937l0 0c39.957886 0 78.279205 29.398712 106.53369 81.728745c28.254517 52.330032 44.127747 123.30478 44.127747 197.31064l0 0c0 154.10916 -67.45343 279.03934 -150.66144 279.03934l0 0c-83.20801 0 -150.66142 -124.930176 -150.66142 -279.03934z" fill-rule="evenodd"/><path fill="#000000" fill-opacity="0.0" d="m366.3295 381.28873l0 0c0 -154.1092 67.45343 -279.03937 150.6614 -279.03937l0 0c39.957886 0 78.279236 29.398712 106.53375 81.728745c28.254456 52.330032 44.127686 123.30478 44.127686 197.31064l0 0c0 154.10916 -67.45343 279.03934 -150.66144 279.03934l0 0c-83.20798 0 -150.6614 -124.930176 -150.6614 -279.03934z" fill-rule="evenodd"/><path stroke="#000000" stroke-width="1.0" stroke-linejoin="round" stroke-linecap="butt" d="m366.3295 381.28873l0 0c0 -154.1092 67.45343 -279.03937 150.6614 -279.03937l0 0c39.957886 0 78.279236 29.398712 106.53375 81.728745c28.254456 52.330032 44.127686 123.30478 44.127686 197.31064l0 0c0 154.10916 -67.45343 279.03934 -150.66144 279.03934l0 0c-83.20798 0 -150.6614 -124.930176 -150.6614 -279.03934z" fill-rule="evenodd"/><path fill="#000000" fill-opacity="0.0" d="m648.6732 515.72833l-70.7807 173.51184l-248.17093 0l-70.78067 -173.51184z" fill-rule="evenodd"/><path stroke="#000000" stroke-width="1.0" stroke-linejoin="round" stroke-linecap="butt" d="m648.6732 515.72833l-70.7807 173.51184l-248.17093 0l-70.78067 -173.51184z" fill-rule="evenodd"/><path fill="#000000" fill-opacity="0.0" d="m318.15222 736.0866l63.142365 -202.64569l148.45541 0l63.142395 202.64569z" fill-rule="evenodd"/><path stroke="#000000" stroke-width="1.0" stroke-linejoin="round" stroke-linecap="butt" d="m318.15222 736.0866l63.142365 -202.64569l148.45541 0l63.142395 202.64569z" fill-rule="evenodd"/><path fill="#000000" fill-opacity="0.0" d="m318.15222 738.9617c0 -13.141785 61.502686 -23.795288 137.37009 -23.795288l0 0c75.8674 0 137.37009 10.653503 137.37009 23.795288l0 0c0 13.141724 -61.502686 23.795288 -137.37009 23.795288l0 0c-75.8674 0 -137.37009 -10.653564 -137.37009 -23.795288z" fill-rule="evenodd"/><path stroke="#000000" stroke-width="1.0" stroke-linejoin="round" stroke-linecap="butt" d="m318.15222 738.9617c0 -13.141785 61.502686 -23.795288 137.37009 -23.795288l0 0c75.8674 0 137.37009 10.653503 137.37009 23.795288l0 0c0 13.141724 -61.502686 23.795288 -137.37009 23.795288l0 0c-75.8674 0 -137.37009 -10.653564 -137.37009 -23.795288z" fill-rule="evenodd"/></g></svg>